# xmcd
#
# Track frame offsets: 
#        150
#        17360
#        47207
#        68110
#        84052
#        110832
#        136880
#        155885
#        178320
#        197800
#        219887
#
# Disc length: 3234 seconds
#
# Revision: 5
# Processed by: cddbd v1.5.1PL2 Copyright (c) Steve Scherf et al.
# Submitted via: ExactAudioCopy v0.95b3
#
DISCID=960ca00b
DTITLE=Various Artist - Blue Note plays Stevie Wonder
DYEAR=2004
DGENRE=Jazz
TTITLE0=Najee/I Wish
TTITLE1=Noel Pointer/Living For The City
TTITLE2=Stanley Turrentine/Don't Worry 'Bout A Thing
TTITLE3=Pieces Of A Dream/Signed, Sealed, Delivered
TTITLE4=Najee/Summer Soft
TTITLE5=Stanley Turrentine/Boogie On Reggae Woman
TTITLE6=Paul Jackson, Jr./It's A Shame
TTITLE7=Najee/Black Man
TTITLE8=Noel Pointer/Superwoman (Where Were You When I Needed You)
TTITLE9=Stanley Turrentine/You And I
TTITLE10=Pat Martino/Too High
EXTD=
EXTT0=
EXTT1=
EXTT2=
EXTT3=
EXTT4=
EXTT5=
EXTT6=
EXTT7=
EXTT8=
EXTT9=
EXTT10=
PLAYORDER=
